<svg width="689pt" height="418pt" viewBox="0 0 689 418" xmlns="http://www.w3.org/2000/svg" xmlns:xlink="http://www.w3.org/1999/xlink">
<g id="graph0" class="graph" transform="scale(1 1) rotate(0) translate(4 414.4)">
<title>a</title>
<polygon fill="#ffffff" stroke="transparent" points="-4,4 -4,-414.4 685.1808,-414.4 685.1808,4 -4,4"></polygon>
<!-- 搜索算法 -->
<g id="node1" class="node">
<title>搜索算法</title>
<ellipse fill="none" stroke="#000000" cx="368.6772" cy="-392.4" rx="47.5807" ry="18"></ellipse>
<text text-anchor="middle" x="368.6772" y="-388.2" font-family="Times,serif" font-size="14.00" fill="#000000">搜索算法</text>
</g>
<!-- BFS -->
<g id="node2" class="node">
<title>BFS</title>
<ellipse fill="none" stroke="#000000" cx="177.6772" cy="-303.6" rx="28.4283" ry="18"></ellipse>
<text text-anchor="middle" x="177.6772" y="-299.4" font-family="Times,serif" font-size="14.00" fill="#000000">BFS</text>
</g>
<!-- 搜索算法&#45;&gt;BFS -->
<g id="edge1" class="edge">
<title>搜索算法-&gt;BFS</title>
<path fill="none" stroke="#000000" d="M329.7342,-381.8347C308.9163,-375.5767 283.1231,-366.8316 261.1656,-356.4 241.4296,-347.0238 220.6591,-333.9024 204.7722,-323.0861"></path>
<polygon fill="#000000" stroke="#000000" points="206.701,-320.1646 196.4861,-317.3526 202.7179,-325.9209 206.701,-320.1646"></polygon>
<text text-anchor="middle" x="310.933" y="-343.8" font-family="Times,serif" font-size="14.00" fill="#000000">完备最优耗空间</text>
</g>
<!-- DFS -->
<g id="node3" class="node">
<title>DFS</title>
<ellipse fill="none" stroke="#000000" cx="396.6772" cy="-303.6" rx="28.991" ry="18"></ellipse>
<text text-anchor="middle" x="396.6772" y="-299.4" font-family="Times,serif" font-size="14.00" fill="#000000">DFS</text>
</g>
<!-- 搜索算法&#45;&gt;DFS -->
<g id="edge2" class="edge">
<title>搜索算法-&gt;DFS</title>
<path fill="none" stroke="#000000" d="M366.2032,-374.323C365.443,-363.8973 365.6364,-350.6973 369.451,-339.6 370.8838,-335.4316 373.0014,-331.3569 375.4338,-327.536"></path>
<polygon fill="#000000" stroke="#000000" points="378.4722,-329.3077 381.5062,-319.1566 372.8041,-325.2001 378.4722,-329.3077"></polygon>
<text text-anchor="middle" x="430.7903" y="-343.8" font-family="Times,serif" font-size="14.00" fill="#000000">不完备非最优省空间</text>
</g>
<!-- IDS -->
<g id="node4" class="node">
<title>IDS</title>
<ellipse fill="none" stroke="#000000" cx="483.6772" cy="-214.8" rx="27" ry="18"></ellipse>
<text text-anchor="middle" x="483.6772" y="-210.6" font-family="Times,serif" font-size="14.00" fill="#000000">IDS</text>
</g>
<!-- 搜索算法&#45;&gt;IDS -->
<g id="edge3" class="edge">
<title>搜索算法-&gt;IDS</title>
<path fill="none" stroke="#000000" d="M412.9174,-385.4056C444.769,-379.3614 483.7973,-369.5269 493.6772,-356.4 518.576,-323.3182 506.4866,-272.6706 495.2342,-241.7618"></path>
<polygon fill="#000000" stroke="#000000" points="498.3683,-240.1615 491.5049,-232.0903 491.8371,-242.68 498.3683,-240.1615"></polygon>
<text text-anchor="middle" x="561.237" y="-299.4" font-family="Times,serif" font-size="14.00" fill="#000000">不完备最优省空间</text>
</g>
<!-- UCS -->
<g id="node5" class="node">
<title>UCS</title>
<ellipse fill="none" stroke="#000000" cx="98.6772" cy="-214.8" rx="29.6339" ry="18"></ellipse>
<text text-anchor="middle" x="98.6772" y="-210.6" font-family="Times,serif" font-size="14.00" fill="#000000">UCS</text>
</g>
<!-- BFS&#45;&gt;UCS -->
<g id="edge4" class="edge">
<title>BFS-&gt;UCS</title>
<path fill="none" stroke="#000000" d="M149.3179,-301.9011C105.0805,-298.5932 22.8501,-289.5814 4.9784,-267.6 -13.6494,-244.6888 26.4923,-229.9354 59.9037,-222.0039"></path>
<polygon fill="#000000" stroke="#000000" points="60.9836,-225.3492 69.9841,-219.7599 59.4625,-218.5165 60.9836,-225.3492"></polygon>
<text text-anchor="middle" x="70.5266" y="-255" font-family="Times,serif" font-size="14.00" fill="#000000">各边代价不等且大于0</text>
</g>
<!-- BS -->
<g id="node7" class="node">
<title>BS</title>
<ellipse fill="none" stroke="#000000" cx="269.6772" cy="-160.8" rx="27" ry="18"></ellipse>
<text text-anchor="middle" x="269.6772" y="-156.6" font-family="Times,serif" font-size="14.00" fill="#000000">BS</text>
</g>
<!-- BFS&#45;&gt;BS -->
<g id="edge6" class="edge">
<title>BFS-&gt;BS</title>
<path fill="none" stroke="#000000" d="M164.7061,-287.6054C157.7484,-276.9849 151.6805,-262.8356 157.4562,-250.8 166.4545,-232.0488 211.2476,-199.5999 241.4489,-179.2147"></path>
<polygon fill="#000000" stroke="#000000" points="243.548,-182.0216 249.9177,-173.5554 239.6586,-176.2016 243.548,-182.0216"></polygon>
<text text-anchor="middle" x="239.2877" y="-255" font-family="Times,serif" font-size="14.00" fill="#000000">从起点和终点同时开始搜索</text>
</g>
<!-- 环检测 -->
<g id="node9" class="node">
<title>环检测</title>
<ellipse fill="none" stroke="#000000" cx="335.6772" cy="-18" rx="38.2663" ry="18"></ellipse>
<text text-anchor="middle" x="335.6772" y="-13.8" font-family="Times,serif" font-size="14.00" fill="#000000">环检测</text>
</g>
<!-- BFS&#45;&gt;环检测 -->
<g id="edge9" class="edge">
<title>BFS-&gt;环检测</title>
<path fill="none" stroke="#0000ff" d="M205.7663,-300.57C243.624,-295.8562 307.9875,-285.4078 322.6772,-267.6 329.6268,-259.1752 333.6864,-109.5934 335.1029,-46.1147"></path>
<polygon fill="#0000ff" stroke="#0000ff" points="338.6044,-46.0798 335.3223,-36.0062 331.6061,-45.9279 338.6044,-46.0798"></polygon>
<text text-anchor="middle" x="350.5345" y="-156.6" font-family="Times,serif" font-size="14.00" fill="#0000ff">使用</text>
</g>
<!-- DFS&#45;&gt;IDS -->
<g id="edge7" class="edge">
<title>DFS-&gt;IDS</title>
<path fill="none" stroke="#000000" d="M405.5985,-286.1873C411.7444,-275.2441 420.6283,-261.2683 430.8508,-250.8 437.6839,-243.8025 446.0726,-237.3566 454.136,-231.9118"></path>
<polygon fill="#000000" stroke="#000000" points="456.1558,-234.774 462.6691,-226.4177 452.3664,-228.8885 456.1558,-234.774"></polygon>
<text text-anchor="middle" x="462.0904" y="-255" font-family="Times,serif" font-size="14.00" fill="#000000">迭代加深</text>
</g>
<!-- DFS&#45;&gt;环检测 -->
<g id="edge13" class="edge">
<title>DFS-&gt;环检测</title>
<path fill="none" stroke="#00ff00" d="M395.0374,-285.6157C392.1309,-255.7449 385.3561,-194.1092 374.6772,-142.8 366.3227,-102.6593 362.6781,-92.8851 349.6772,-54 348.7402,-51.1977 347.7111,-48.2935 346.6492,-45.4056"></path>
<polygon fill="#00ff00" stroke="#00ff00" points="349.829,-43.9209 342.9993,-35.8211 343.2873,-46.412 349.829,-43.9209"></polygon>
<text text-anchor="middle" x="405.3648" y="-156.6" font-family="Times,serif" font-size="14.00" fill="#00ff00">不使用</text>
</g>
<!-- IDA* -->
<g id="node8" class="node">
<title>IDA*</title>
<ellipse fill="none" stroke="#000000" cx="560.6772" cy="-106.8" rx="33.045" ry="18"></ellipse>
<text text-anchor="middle" x="560.6772" y="-102.6" font-family="Times,serif" font-size="14.00" fill="#000000">IDA*</text>
</g>
<!-- IDS&#45;&gt;IDA* -->
<g id="edge8" class="edge">
<title>IDS-&gt;IDA*</title>
<path fill="none" stroke="#000000" d="M495.3718,-198.3971C507.9616,-180.7386 528.1435,-152.4316 542.7419,-131.9559"></path>
<polygon fill="#000000" stroke="#000000" points="545.6627,-133.8882 548.6181,-123.7139 539.963,-129.8245 545.6627,-133.8882"></polygon>
<text text-anchor="middle" x="606.929" y="-156.6" font-family="Times,serif" font-size="14.00" fill="#000000">迭代加深+启发式函数</text>
</g>
<!-- IDS&#45;&gt;环检测 -->
<g id="edge14" class="edge">
<title>IDS-&gt;环检测</title>
<path fill="none" stroke="#00ff00" d="M479.8096,-196.8037C472.0069,-164.4 451.5323,-95.7373 410.6772,-54 401.4296,-44.5527 389.207,-37.259 377.319,-31.7864"></path>
<polygon fill="#00ff00" stroke="#00ff00" points="378.4917,-28.4817 367.92,-27.7817 375.7478,-34.9215 378.4917,-28.4817"></polygon>
<text text-anchor="middle" x="479.3648" y="-102.6" font-family="Times,serif" font-size="14.00" fill="#00ff00">不使用</text>
</g>
<!-- A* -->
<g id="node6" class="node">
<title>A*</title>
<ellipse fill="none" stroke="#000000" cx="194.6772" cy="-106.8" rx="27" ry="18"></ellipse>
<text text-anchor="middle" x="194.6772" y="-102.6" font-family="Times,serif" font-size="14.00" fill="#000000">A*</text>
</g>
<!-- UCS&#45;&gt;A* -->
<g id="edge5" class="edge">
<title>UCS-&gt;A*</title>
<path fill="none" stroke="#000000" d="M105.9411,-197.3417C114.3232,-177.4456 127.4597,-147.109 131.3946,-142.8 139.8327,-133.5596 151.2084,-126.0822 161.9878,-120.3861"></path>
<polygon fill="#000000" stroke="#000000" points="163.794,-123.3981 171.2183,-115.8396 160.7009,-117.1185 163.794,-123.3981"></polygon>
<text text-anchor="middle" x="182.8185" y="-156.6" font-family="Times,serif" font-size="14.00" fill="#000000">加入启发式函数</text>
</g>
<!-- UCS&#45;&gt;环检测 -->
<g id="edge10" class="edge">
<title>UCS-&gt;环检测</title>
<path fill="none" stroke="#0000ff" d="M96.8704,-196.8118C95.2033,-170.2619 96.0129,-120.3313 120.9626,-88.8 142.1142,-62.0686 233.4032,-39.0192 289.9201,-26.9606"></path>
<polygon fill="#0000ff" stroke="#0000ff" points="290.9744,-30.3158 300.0436,-24.8386 289.5382,-23.4647 290.9744,-30.3158"></polygon>
<text text-anchor="middle" x="140.5345" y="-102.6" font-family="Times,serif" font-size="14.00" fill="#0000ff">使用</text>
</g>
<!-- A*&#45;&gt;环检测 -->
<g id="edge12" class="edge">
<title>A*-&gt;环检测</title>
<path fill="none" stroke="#0000ff" d="M198.5138,-88.8352C201.8392,-77.3829 207.7742,-63.0467 217.9626,-54 229.0053,-44.1946 262.4332,-34.484 290.8578,-27.6238"></path>
<polygon fill="#0000ff" stroke="#0000ff" points="291.7244,-31.0155 300.6585,-25.3206 290.1229,-24.2012 291.7244,-31.0155"></polygon>
<text text-anchor="middle" x="236.5345" y="-58.2" font-family="Times,serif" font-size="14.00" fill="#0000ff">使用</text>
</g>
<!-- BS&#45;&gt;环检测 -->
<g id="edge11" class="edge">
<title>BS-&gt;环检测</title>
<path fill="none" stroke="#0000ff" d="M271.0804,-142.6932C272.7473,-127.7267 276.3352,-106.1888 283.9626,-88.8 291.2854,-72.1053 303.0752,-55.5354 313.5497,-42.6275"></path>
<polygon fill="#0000ff" stroke="#0000ff" points="316.4441,-44.6227 320.1827,-34.7094 311.0781,-40.1275 316.4441,-44.6227"></polygon>
<text text-anchor="middle" x="302.5345" y="-102.6" font-family="Times,serif" font-size="14.00" fill="#0000ff">使用</text>
</g>
<!-- IDA*&#45;&gt;环检测 -->
<g id="edge15" class="edge">
<title>IDA*-&gt;环检测</title>
<path fill="none" stroke="#00ff00" d="M540.7548,-92.1918C523.8927,-80.425 498.7006,-64.2142 474.6772,-54 444.6428,-41.2301 408.9738,-32.106 381.2887,-26.2386"></path>
<polygon fill="#00ff00" stroke="#00ff00" points="381.9751,-22.8066 371.4754,-24.2235 380.567,-29.6635 381.9751,-22.8066"></polygon>
<text text-anchor="middle" x="531.3648" y="-58.2" font-family="Times,serif" font-size="14.00" fill="#00ff00">不使用</text>
</g>
</g>
</svg>