<?xml version="1.0" encoding="UTF-8" standalone="no"?>
<!DOCTYPE svg PUBLIC "-//W3C//DTD SVG 1.1//EN"
 "http://www.w3.org/Graphics/SVG/1.1/DTD/svg11.dtd">
<!-- Generated by graphviz version 2.37.20140115.0545 (20140115.0545)
 -->
<!-- Title: a Pages: 1 -->
<svg width="357pt" height="116pt"
 viewBox="0.00 0.00 357.00 116.00" xmlns="http://www.w3.org/2000/svg" xmlns:xlink="http://www.w3.org/1999/xlink">
<g id="graph0" class="graph" transform="scale(1 1) rotate(0) translate(4 112)">
<title>a</title>
<polygon fill="white" stroke="none" points="-4,4 -4,-112 353,-112 353,4 -4,4"/>
<!-- root -->
<g id="node1" class="node"><title>root</title>
<polygon fill="none" stroke="black" points="208,-108 154,-108 154,-72 208,-72 208,-108"/>
<text text-anchor="middle" x="181" y="-86.3" font-family="fangsong" font-size="14.00">root</text>
</g>
<!-- type 1 -->
<g id="node2" class="node"><title>type 1</title>
<ellipse fill="none" stroke="black" cx="40" cy="-18" rx="39.9464" ry="18"/>
<text text-anchor="middle" x="40" y="-14.3" font-family="fangsong" font-size="14.00">type 1</text>
</g>
<!-- root&#45;&gt;type 1 -->
<g id="edge1" class="edge"><title>root&#45;&gt;type 1</title>
<path fill="none" stroke="black" d="M153.814,-75.5033C131.489,-64.4202 99.7039,-48.6403 75.3951,-36.572"/>
<polygon fill="black" stroke="black" points="76.6627,-33.2938 66.1494,-31.982 73.55,-39.5637 76.6627,-33.2938"/>
</g>
<!-- type 2 -->
<g id="node3" class="node"><title>type 2</title>
<ellipse fill="none" stroke="black" cx="139" cy="-18" rx="39.9464" ry="18"/>
<text text-anchor="middle" x="139" y="-14.3" font-family="fangsong" font-size="14.00">type 2</text>
</g>
<!-- root&#45;&gt;type 2 -->
<g id="edge2" class="edge"><title>root&#45;&gt;type 2</title>
<path fill="none" stroke="black" d="M170.618,-71.6966C165.662,-63.4374 159.636,-53.394 154.18,-44.2994"/>
<polygon fill="black" stroke="black" points="157.12,-42.3965 148.973,-35.6223 151.117,-45.998 157.12,-42.3965"/>
</g>
<!-- ... -->
<g id="node4" class="node"><title>...</title>
<ellipse fill="none" stroke="black" cx="224" cy="-18" rx="27" ry="18"/>
<text text-anchor="middle" x="224" y="-14.3" font-family="fangsong" font-size="14.00">...</text>
</g>
<!-- root&#45;&gt;... -->
<g id="edge3" class="edge"><title>root&#45;&gt;...</title>
<path fill="none" stroke="black" d="M191.629,-71.6966C196.777,-63.316 203.054,-53.0983 208.705,-43.8988"/>
<polygon fill="black" stroke="black" points="211.831,-45.4973 214.083,-35.1446 205.866,-41.8334 211.831,-45.4973"/>
</g>
<!-- type n -->
<g id="node5" class="node"><title>type n</title>
<ellipse fill="none" stroke="black" cx="309" cy="-18" rx="39.9464" ry="18"/>
<text text-anchor="middle" x="309" y="-14.3" font-family="fangsong" font-size="14.00">type n</text>
</g>
<!-- root&#45;&gt;type n -->
<g id="edge4" class="edge"><title>root&#45;&gt;type n</title>
<path fill="none" stroke="black" d="M208.146,-74.1548C227.835,-63.3874 254.583,-48.7594 275.586,-37.2735"/>
<polygon fill="black" stroke="black" points="277.396,-40.2725 284.491,-32.4035 274.038,-34.1309 277.396,-40.2725"/>
</g>
</g>
</svg>
