<?xml version="1.0" encoding="UTF-8" standalone="no"?>
<!DOCTYPE svg PUBLIC "-//W3C//DTD SVG 1.1//EN"
 "http://www.w3.org/Graphics/SVG/1.1/DTD/svg11.dtd">
<!-- Generated by graphviz version 2.37.20140115.0545 (20140115.0545)
 -->
<!-- Title: a Pages: 1 -->
<svg width="429pt" height="142pt"
 viewBox="0.00 0.00 429.00 142.00" xmlns="http://www.w3.org/2000/svg" xmlns:xlink="http://www.w3.org/1999/xlink">
<g id="graph0" class="graph" transform="scale(1 1) rotate(0) translate(4 138)">
<title>a</title>
<polygon fill="white" stroke="none" points="-4,4 -4,-138 425,-138 425,4 -4,4"/>
<!-- root -->
<g id="node1" class="node"><title>root</title>
<polygon fill="none" stroke="black" points="224,-134 170,-134 170,-98 224,-98 224,-134"/>
<text text-anchor="middle" x="197" y="-112.3" font-family="fangsong" font-size="14.00">root</text>
</g>
<!-- u1 -->
<g id="node2" class="node"><title>u1</title>
<polygon fill="none" stroke="black" points="41,-46 -0.393995,-11.5 82.394,-11.5 41,-46"/>
<text text-anchor="middle" x="41" y="-19.3" font-family="fangsong" font-size="14.00">u1</text>
</g>
<!-- root&#45;&gt;u1 -->
<g id="edge1" class="edge"><title>root&#45;&gt;u1</title>
<path fill="none" stroke="black" d="M169.905,-100.218C158.736,-94.0543 145.696,-86.7676 134,-80 110.416,-66.3536 83.8085,-50.2603 65.1147,-38.8361"/>
<polygon fill="black" stroke="black" points="66.7258,-35.7186 56.3701,-33.4799 63.0695,-41.6878 66.7258,-35.7186"/>
<text text-anchor="middle" x="148.5" y="-68.3" font-family="Times New Roman,serif" font-size="14.00">u=u1</text>
</g>
<!-- u2 -->
<g id="node3" class="node"><title>u2</title>
<polygon fill="none" stroke="black" points="142,-46 100.606,-11.5 183.394,-11.5 142,-46"/>
<text text-anchor="middle" x="142" y="-19.3" font-family="fangsong" font-size="14.00">u2</text>
</g>
<!-- root&#45;&gt;u2 -->
<g id="edge2" class="edge"><title>root&#45;&gt;u2</title>
<path fill="none" stroke="black" d="M186.655,-97.8836C178.019,-83.5948 165.625,-63.088 156.084,-47.3025"/>
<polygon fill="black" stroke="black" points="159.014,-45.3844 150.846,-38.6365 153.023,-49.0052 159.014,-45.3844"/>
<text text-anchor="middle" x="189.5" y="-68.3" font-family="Times New Roman,serif" font-size="14.00">u=u2</text>
</g>
<!-- ... -->
<g id="node4" class="node"><title>...</title>
<polygon fill="none" stroke="black" points="252,-46 201.457,-11.5 302.543,-11.5 252,-46"/>
<text text-anchor="middle" x="252" y="-19.3" font-family="fangsong" font-size="14.00">...</text>
</g>
<!-- root&#45;&gt;... -->
<g id="edge3" class="edge"><title>root&#45;&gt;...</title>
<path fill="none" stroke="black" d="M207.345,-97.8836C215.773,-83.9391 227.78,-64.0727 237.222,-48.4517"/>
<polygon fill="black" stroke="black" points="240.26,-50.1905 242.437,-39.8217 234.269,-46.5696 240.26,-50.1905"/>
</g>
<!-- u14 -->
<g id="node5" class="node"><title>u14</title>
<polygon fill="none" stroke="black" points="371,-46 320.457,-11.5 421.543,-11.5 371,-46"/>
<text text-anchor="middle" x="371" y="-19.3" font-family="fangsong" font-size="14.00">u14</text>
</g>
<!-- root&#45;&gt;u14 -->
<g id="edge4" class="edge"><title>root&#45;&gt;u14</title>
<path fill="none" stroke="black" d="M224.188,-100.781C256.723,-83.7655 310.89,-55.4369 343.544,-38.3592"/>
<polygon fill="black" stroke="black" points="345.304,-41.3883 352.544,-33.6524 342.06,-35.1854 345.304,-41.3883"/>
<text text-anchor="middle" x="312" y="-68.3" font-family="Times New Roman,serif" font-size="14.00">u=u14</text>
</g>
</g>
</svg>
