<?xml version="1.0" encoding="UTF-8" standalone="no"?>
<!DOCTYPE svg PUBLIC "-//W3C//DTD SVG 1.1//EN"
 "http://www.w3.org/Graphics/SVG/1.1/DTD/svg11.dtd">
<!-- Generated by graphviz version 2.37.20140115.0545 (20140115.0545)
 -->
<!-- Title: a Pages: 1 -->
<svg width="374pt" height="276pt"
 viewBox="0.00 0.00 374.00 276.00" xmlns="http://www.w3.org/2000/svg" xmlns:xlink="http://www.w3.org/1999/xlink">
<g id="graph0" class="graph" transform="scale(1 1) rotate(0) translate(4 272)">
<title>a</title>
<polygon fill="white" stroke="none" points="-4,4 -4,-272 370,-272 370,4 -4,4"/>
<g id="clust3" class="cluster"><title>cluster_2</title>
<polygon fill="none" stroke="white" points="12,-8 12,-60 298,-60 298,-8 12,-8"/>
</g>
<g id="clust1" class="cluster"><title>cluster_1</title>
<polygon fill="none" stroke="white" points="8,-152 8,-204 302,-204 302,-152 8,-152"/>
</g>
<!-- root1 -->
<g id="node1" class="node"><title>root1</title>
<polygon fill="none" stroke="black" points="180,-268 126,-268 126,-232 180,-232 180,-268"/>
<text text-anchor="middle" x="153" y="-246.3" font-family="fangsong" font-size="14.00">root1</text>
</g>
<!-- yn -->
<g id="node2" class="node"><title>yn</title>
<ellipse fill="none" stroke="black" cx="267" cy="-178" rx="27" ry="18"/>
<text text-anchor="middle" x="267" y="-174.3" font-family="fangsong" font-size="14.00">yn</text>
</g>
<!-- root1&#45;&gt;yn -->
<g id="edge1" class="edge"><title>root1&#45;&gt;yn</title>
<path fill="none" stroke="black" d="M180.342,-233.6C195.175,-225.101 213.749,-214.224 230,-204 233.373,-201.878 236.884,-199.6 240.34,-197.314"/>
<polygon fill="black" stroke="black" points="242.355,-200.177 248.712,-191.702 238.457,-194.363 242.355,-200.177"/>
</g>
<!-- .... -->
<g id="node3" class="node"><title>....</title>
<ellipse fill="none" stroke="black" cx="191" cy="-178" rx="30.3206" ry="18"/>
<text text-anchor="middle" x="191" y="-174.3" font-family="fangsong" font-size="14.00">....</text>
</g>
<!-- root1&#45;&gt;.... -->
<g id="edge2" class="edge"><title>root1&#45;&gt;....</title>
<path fill="none" stroke="black" d="M162.393,-231.697C166.83,-223.523 172.215,-213.603 177.112,-204.584"/>
<polygon fill="black" stroke="black" points="180.281,-206.081 181.976,-195.622 174.13,-202.741 180.281,-206.081"/>
</g>
<!-- y2 -->
<g id="node4" class="node"><title>y2</title>
<ellipse fill="none" stroke="black" cx="115" cy="-178" rx="27" ry="18"/>
<text text-anchor="middle" x="115" y="-174.3" font-family="fangsong" font-size="14.00">y2</text>
</g>
<!-- root1&#45;&gt;y2 -->
<g id="edge3" class="edge"><title>root1&#45;&gt;y2</title>
<path fill="none" stroke="black" d="M143.607,-231.697C139.105,-223.403 133.626,-213.311 128.673,-204.187"/>
<polygon fill="black" stroke="black" points="131.611,-202.263 123.764,-195.145 125.459,-205.603 131.611,-202.263"/>
</g>
<!-- y1 -->
<g id="node5" class="node"><title>y1</title>
<ellipse fill="none" stroke="black" cx="43" cy="-178" rx="27" ry="18"/>
<text text-anchor="middle" x="43" y="-174.3" font-family="fangsong" font-size="14.00">y1</text>
</g>
<!-- root1&#45;&gt;y1 -->
<g id="edge4" class="edge"><title>root1&#45;&gt;y1</title>
<path fill="none" stroke="black" d="M125.692,-232.932C111.617,-224.516 94.2515,-213.92 79,-204 75.8146,-201.928 72.5022,-199.713 69.2333,-197.49"/>
<polygon fill="black" stroke="black" points="71.0201,-194.471 60.7999,-191.678 67.0478,-200.235 71.0201,-194.471"/>
</g>
<!-- root2 -->
<g id="node6" class="node"><title>root2</title>
<polygon fill="none" stroke="black" points="182,-124 128,-124 128,-88 182,-88 182,-124"/>
<text text-anchor="middle" x="155" y="-102.3" font-family="fangsong" font-size="14.00">root2</text>
</g>
<!-- xin -->
<g id="node7" class="node"><title>xin</title>
<ellipse fill="none" stroke="black" cx="263" cy="-34" rx="27" ry="18"/>
<text text-anchor="middle" x="263" y="-30.3" font-family="fangsong" font-size="14.00">xin</text>
</g>
<!-- root2&#45;&gt;xin -->
<g id="edge5" class="edge"><title>root2&#45;&gt;xin</title>
<path fill="none" stroke="black" d="M182.207,-88.4254C195.767,-80.0564 212.354,-69.654 227,-60 230.173,-57.9087 233.477,-55.682 236.742,-53.4523"/>
<polygon fill="black" stroke="black" points="238.93,-56.1952 245.171,-47.6342 234.953,-50.4342 238.93,-56.1952"/>
</g>
<!-- ... -->
<g id="node8" class="node"><title>...</title>
<ellipse fill="none" stroke="black" cx="191" cy="-34" rx="27" ry="18"/>
<text text-anchor="middle" x="191" y="-30.3" font-family="fangsong" font-size="14.00">...</text>
</g>
<!-- root2&#45;&gt;... -->
<g id="edge6" class="edge"><title>root2&#45;&gt;...</title>
<path fill="none" stroke="black" d="M163.899,-87.6966C168.164,-79.4033 173.354,-69.3109 178.047,-60.1866"/>
<polygon fill="black" stroke="black" points="181.236,-61.6382 182.697,-51.1446 175.011,-58.4367 181.236,-61.6382"/>
</g>
<!-- xi2 -->
<g id="node9" class="node"><title>xi2</title>
<ellipse fill="none" stroke="black" cx="119" cy="-34" rx="27" ry="18"/>
<text text-anchor="middle" x="119" y="-30.3" font-family="fangsong" font-size="14.00">xi2</text>
</g>
<!-- root2&#45;&gt;xi2 -->
<g id="edge7" class="edge"><title>root2&#45;&gt;xi2</title>
<path fill="none" stroke="black" d="M146.101,-87.6966C141.836,-79.4033 136.646,-69.3109 131.953,-60.1866"/>
<polygon fill="black" stroke="black" points="134.989,-58.4367 127.303,-51.1446 128.764,-61.6382 134.989,-58.4367"/>
</g>
<!-- xi1 -->
<g id="node10" class="node"><title>xi1</title>
<ellipse fill="none" stroke="black" cx="47" cy="-34" rx="27" ry="18"/>
<text text-anchor="middle" x="47" y="-30.3" font-family="fangsong" font-size="14.00">xi1</text>
</g>
<!-- root2&#45;&gt;xi1 -->
<g id="edge8" class="edge"><title>root2&#45;&gt;xi1</title>
<path fill="none" stroke="black" d="M127.793,-88.4254C114.233,-80.0564 97.6457,-69.654 83,-60 79.8274,-57.9087 76.5227,-55.682 73.2581,-53.4523"/>
<polygon fill="black" stroke="black" points="75.0469,-50.4342 64.8287,-47.6342 71.0705,-56.1952 75.0469,-50.4342"/>
</g>
<!-- 1 -->
<g id="node11" class="node"><title>1</title>
<text text-anchor="middle" x="339" y="-246.3" font-family="fangsong" font-size="14.00">H(Y)</text>
</g>
<!-- 2 -->
<g id="node13" class="node"><title>2</title>
</g>
<!-- 1&#45;&gt;2 -->
<g id="edge9" class="edge"><title>1&#45;&gt;2</title>
<path fill="none" stroke="white" d="M339,-231.697C339,-223.983 339,-214.712 339,-206.112"/>
<polygon fill="white" stroke="white" points="342.5,-206.104 339,-196.104 335.5,-206.104 342.5,-206.104"/>
</g>
<!-- 3 -->
<g id="node12" class="node"><title>3</title>
<text text-anchor="middle" x="339" y="-102.3" font-family="fangsong" font-size="14.00">H(Xi)</text>
</g>
<!-- 4 -->
<g id="node14" class="node"><title>4</title>
</g>
<!-- 3&#45;&gt;4 -->
<g id="edge11" class="edge"><title>3&#45;&gt;4</title>
<path fill="none" stroke="white" d="M339,-87.6966C339,-79.9827 339,-70.7125 339,-62.1124"/>
<polygon fill="white" stroke="white" points="342.5,-62.1043 339,-52.1043 335.5,-62.1044 342.5,-62.1043"/>
</g>
<!-- 2&#45;&gt;3 -->
<g id="edge10" class="edge"><title>2&#45;&gt;3</title>
<path fill="none" stroke="white" d="M339,-159.697C339,-151.983 339,-142.712 339,-134.112"/>
<polygon fill="white" stroke="white" points="342.5,-134.104 339,-124.104 335.5,-134.104 342.5,-134.104"/>
</g>
</g>
</svg>
